<?xml version="1.0" encoding="UTF-8" standalone="no"?>
<!DOCTYPE svg PUBLIC "-//W3C//DTD SVG 1.1//EN"
 "http://www.w3.org/Graphics/SVG/1.1/DTD/svg11.dtd">
<!-- Generated by graphviz version 2.38.0 (20140413.2041)
 -->
<!-- Title: controllers_diagram Pages: 1 -->
<svg width="414pt" height="371pt"
 viewBox="0.00 0.00 413.96 371.00" xmlns="http://www.w3.org/2000/svg" xmlns:xlink="http://www.w3.org/1999/xlink">
<g id="graph0" class="graph" transform="scale(1 1) rotate(0) translate(76.269 241.5)">
<title>controllers_diagram</title>
<polygon fill="none" stroke="none" points="-76.269,129.5 -76.269,-241.5 337.688,-241.5 337.688,129.5 -76.269,129.5"/>
<!-- _diagram_info -->
<g id="node1" class="node"><title>_diagram_info</title>
<text text-anchor="start" x="134.312" y="-185.1" font-family="Times,serif" font-size="13.00">Controllers diagram</text>
<text text-anchor="start" x="134.312" y="-172.1" font-family="Times,serif" font-size="13.00">Date: Aug 29 2016 &#45; 22:02</text>
<text text-anchor="start" x="134.312" y="-159.1" font-family="Times,serif" font-size="13.00">Migration version: 20160830005945</text>
<text text-anchor="start" x="134.312" y="-146.1" font-family="Times,serif" font-size="13.00">Generated by RailRoady 1.5.1</text>
<text text-anchor="start" x="134.312" y="-133.1" font-family="Times,serif" font-size="13.00">http://railroady.prestonlee.com</text>
</g>
<!-- ApplicationController -->
<g id="node2" class="node"><title>ApplicationController</title>
<path fill="none" stroke="black" d="M-41.8208,-145C-41.8208,-145 73.8208,-145 73.8208,-145 79.8208,-145 85.8208,-151 85.8208,-157 85.8208,-157 85.8208,-225 85.8208,-225 85.8208,-231 79.8208,-237 73.8208,-237 73.8208,-237 -41.8208,-237 -41.8208,-237 -47.8208,-237 -53.8208,-231 -53.8208,-225 -53.8208,-225 -53.8208,-157 -53.8208,-157 -53.8208,-151 -47.8208,-145 -41.8208,-145"/>
<text text-anchor="middle" x="16" y="-221.8" font-family="Times,serif" font-size="14.00">ApplicationController</text>
<polyline fill="none" stroke="black" points="-53.8208,-215 85.8208,-215 "/>
<polyline fill="none" stroke="black" points="-53.8208,-191 85.8208,-191 "/>
<polyline fill="none" stroke="black" points="-53.8208,-167 85.8208,-167 "/>
<text text-anchor="start" x="-45.8208" y="-151.8" font-family="Times,serif" font-size="14.00">_layout</text>
</g>
<!-- CommentsController -->
<g id="node3" class="node"><title>CommentsController</title>
<path fill="none" stroke="black" d="M119.893,107C119.893,107 230.107,107 230.107,107 236.107,107 242.107,101 242.107,95 242.107,95 242.107,-83 242.107,-83 242.107,-89 236.107,-95 230.107,-95 230.107,-95 119.893,-95 119.893,-95 113.893,-95 107.893,-89 107.893,-83 107.893,-83 107.893,95 107.893,95 107.893,101 113.893,107 119.893,107"/>
<text text-anchor="middle" x="175" y="-79.8" font-family="Times,serif" font-size="14.00">CommentsController</text>
<polyline fill="none" stroke="black" points="107.893,-73 242.107,-73 "/>
<text text-anchor="start" x="115.893" y="-57.8" font-family="Times,serif" font-size="14.00">index</text>
<text text-anchor="start" x="115.893" y="-43.8" font-family="Times,serif" font-size="14.00">destroy</text>
<text text-anchor="start" x="115.893" y="-29.8" font-family="Times,serif" font-size="14.00">edit</text>
<text text-anchor="start" x="115.893" y="-15.8" font-family="Times,serif" font-size="14.00">create</text>
<text text-anchor="start" x="115.893" y="-1.8" font-family="Times,serif" font-size="14.00">new</text>
<text text-anchor="start" x="115.893" y="12.2" font-family="Times,serif" font-size="14.00">show</text>
<text text-anchor="start" x="115.893" y="26.2" font-family="Times,serif" font-size="14.00">update</text>
<polyline fill="none" stroke="black" points="107.893,33 242.107,33 "/>
<polyline fill="none" stroke="black" points="107.893,57 242.107,57 "/>
<text text-anchor="start" x="115.893" y="72.2" font-family="Times,serif" font-size="14.00">_layout</text>
<text text-anchor="start" x="115.893" y="86.2" font-family="Times,serif" font-size="14.00">comment_params</text>
<text text-anchor="start" x="115.893" y="100.2" font-family="Times,serif" font-size="14.00">set_comment</text>
</g>
<!-- CompaniesController -->
<g id="node4" class="node"><title>CompaniesController</title>
<path fill="none" stroke="black" d="M-60.269,125C-60.269,125 52.269,125 52.269,125 58.269,125 64.269,119 64.269,113 64.269,113 64.269,-93 64.269,-93 64.269,-99 58.269,-105 52.269,-105 52.269,-105 -60.269,-105 -60.269,-105 -66.269,-105 -72.269,-99 -72.269,-93 -72.269,-93 -72.269,113 -72.269,113 -72.269,119 -66.269,125 -60.269,125"/>
<text text-anchor="middle" x="-4" y="-89.8" font-family="Times,serif" font-size="14.00">CompaniesController</text>
<polyline fill="none" stroke="black" points="-72.269,-83 64.269,-83 "/>
<text text-anchor="start" x="-64.269" y="-67.8" font-family="Times,serif" font-size="14.00">update</text>
<text text-anchor="start" x="-64.269" y="-53.8" font-family="Times,serif" font-size="14.00">create</text>
<text text-anchor="start" x="-64.269" y="-39.8" font-family="Times,serif" font-size="14.00">destroy</text>
<text text-anchor="start" x="-64.269" y="-25.8" font-family="Times,serif" font-size="14.00">edit</text>
<text text-anchor="start" x="-64.269" y="-11.8" font-family="Times,serif" font-size="14.00">index</text>
<text text-anchor="start" x="-64.269" y="2.2" font-family="Times,serif" font-size="14.00">list_companies</text>
<text text-anchor="start" x="-64.269" y="16.2" font-family="Times,serif" font-size="14.00">new</text>
<text text-anchor="start" x="-64.269" y="30.2" font-family="Times,serif" font-size="14.00">show</text>
<text text-anchor="start" x="-64.269" y="44.2" font-family="Times,serif" font-size="14.00">add_comment</text>
<polyline fill="none" stroke="black" points="-72.269,51 64.269,51 "/>
<polyline fill="none" stroke="black" points="-72.269,75 64.269,75 "/>
<text text-anchor="start" x="-64.269" y="90.2" font-family="Times,serif" font-size="14.00">_layout</text>
<text text-anchor="start" x="-64.269" y="104.2" font-family="Times,serif" font-size="14.00">company_params</text>
<text text-anchor="start" x="-64.269" y="118.2" font-family="Times,serif" font-size="14.00">set_company</text>
</g>
</g>
</svg>
