<?xml version="1.0" encoding="UTF-8" standalone="no"?>
<!DOCTYPE svg PUBLIC "-//W3C//DTD SVG 1.1//EN"
 "http://www.w3.org/Graphics/SVG/1.1/DTD/svg11.dtd">
<!-- Generated by graphviz version 2.38.0 (20140413.2041)
 -->
<!-- Title: controllers_diagram Pages: 1 -->
<svg width="420pt" height="339pt"
 viewBox="0.00 0.00 419.79 339.00" xmlns="http://www.w3.org/2000/svg" xmlns:xlink="http://www.w3.org/1999/xlink">
<g id="graph0" class="graph" transform="scale(1 1) rotate(0) translate(72.1069 233.5)">
<title>controllers_diagram</title>
<polygon fill="none" stroke="none" points="-72.1069,105.5 -72.1069,-233.5 347.688,-233.5 347.688,105.5 -72.1069,105.5"/>
<!-- _diagram_info -->
<g id="node1" class="node"><title>_diagram_info</title>
<text text-anchor="start" x="144.312" y="-195.1" font-family="Times,serif" font-size="13.00">Controllers diagram</text>
<text text-anchor="start" x="144.312" y="-182.1" font-family="Times,serif" font-size="13.00">Date: Aug 29 2016 &#45; 19:27</text>
<text text-anchor="start" x="144.312" y="-169.1" font-family="Times,serif" font-size="13.00">Migration version: 20160829222556</text>
<text text-anchor="start" x="144.312" y="-156.1" font-family="Times,serif" font-size="13.00">Generated by RailRoady 1.5.1</text>
<text text-anchor="start" x="144.312" y="-143.1" font-family="Times,serif" font-size="13.00">http://railroady.prestonlee.com</text>
</g>
<!-- ApplicationController -->
<g id="node2" class="node"><title>ApplicationController</title>
<path fill="none" stroke="black" d="M-21.8208,-137C-21.8208,-137 93.8208,-137 93.8208,-137 99.8208,-137 105.821,-143 105.821,-149 105.821,-149 105.821,-217 105.821,-217 105.821,-223 99.8208,-229 93.8208,-229 93.8208,-229 -21.8208,-229 -21.8208,-229 -27.8208,-229 -33.8208,-223 -33.8208,-217 -33.8208,-217 -33.8208,-149 -33.8208,-149 -33.8208,-143 -27.8208,-137 -21.8208,-137"/>
<text text-anchor="middle" x="36" y="-213.8" font-family="Times,serif" font-size="14.00">ApplicationController</text>
<polyline fill="none" stroke="black" points="-33.8208,-207 105.821,-207 "/>
<polyline fill="none" stroke="black" points="-33.8208,-183 105.821,-183 "/>
<polyline fill="none" stroke="black" points="-33.8208,-159 105.821,-159 "/>
<text text-anchor="start" x="-25.8208" y="-143.8" font-family="Times,serif" font-size="14.00">_layout</text>
</g>
<!-- CommentsController -->
<g id="node3" class="node"><title>CommentsController</title>
<path fill="none" stroke="black" d="M-56.1069,101C-56.1069,101 54.1069,101 54.1069,101 60.1069,101 66.1069,95 66.1069,89 66.1069,89 66.1069,-89 66.1069,-89 66.1069,-95 60.1069,-101 54.1069,-101 54.1069,-101 -56.1069,-101 -56.1069,-101 -62.1069,-101 -68.1069,-95 -68.1069,-89 -68.1069,-89 -68.1069,89 -68.1069,89 -68.1069,95 -62.1069,101 -56.1069,101"/>
<text text-anchor="middle" x="-1" y="-85.8" font-family="Times,serif" font-size="14.00">CommentsController</text>
<polyline fill="none" stroke="black" points="-68.1069,-79 66.1069,-79 "/>
<polyline fill="none" stroke="black" points="-68.1069,-55 66.1069,-55 "/>
<text text-anchor="start" x="-60.1069" y="-39.8" font-family="Times,serif" font-size="14.00">resource_url</text>
<text text-anchor="start" x="-60.1069" y="-25.8" font-family="Times,serif" font-size="14.00">collection_url</text>
<text text-anchor="start" x="-60.1069" y="-11.8" font-family="Times,serif" font-size="14.00">edit_resource_path</text>
<text text-anchor="start" x="-60.1069" y="2.2" font-family="Times,serif" font-size="14.00">edit_resource_url</text>
<text text-anchor="start" x="-60.1069" y="16.2" font-family="Times,serif" font-size="14.00">new_resource_path</text>
<text text-anchor="start" x="-60.1069" y="30.2" font-family="Times,serif" font-size="14.00">new_resource_url</text>
<text text-anchor="start" x="-60.1069" y="44.2" font-family="Times,serif" font-size="14.00">resource_path</text>
<text text-anchor="start" x="-60.1069" y="58.2" font-family="Times,serif" font-size="14.00">collection_path</text>
<polyline fill="none" stroke="black" points="-68.1069,65 66.1069,65 "/>
<text text-anchor="start" x="-60.1069" y="80.2" font-family="Times,serif" font-size="14.00">_layout</text>
<text text-anchor="start" x="-60.1069" y="94.2" font-family="Times,serif" font-size="14.00">comment_params</text>
</g>
<!-- CompaniesController -->
<g id="node4" class="node"><title>CompaniesController</title>
<path fill="none" stroke="black" d="M113.731,101C113.731,101 226.269,101 226.269,101 232.269,101 238.269,95 238.269,89 238.269,89 238.269,-89 238.269,-89 238.269,-95 232.269,-101 226.269,-101 226.269,-101 113.731,-101 113.731,-101 107.731,-101 101.731,-95 101.731,-89 101.731,-89 101.731,89 101.731,89 101.731,95 107.731,101 113.731,101"/>
<text text-anchor="middle" x="170" y="-85.8" font-family="Times,serif" font-size="14.00">CompaniesController</text>
<polyline fill="none" stroke="black" points="101.731,-79 238.269,-79 "/>
<polyline fill="none" stroke="black" points="101.731,-55 238.269,-55 "/>
<text text-anchor="start" x="109.731" y="-39.8" font-family="Times,serif" font-size="14.00">resource_url</text>
<text text-anchor="start" x="109.731" y="-25.8" font-family="Times,serif" font-size="14.00">collection_url</text>
<text text-anchor="start" x="109.731" y="-11.8" font-family="Times,serif" font-size="14.00">edit_resource_path</text>
<text text-anchor="start" x="109.731" y="2.2" font-family="Times,serif" font-size="14.00">edit_resource_url</text>
<text text-anchor="start" x="109.731" y="16.2" font-family="Times,serif" font-size="14.00">new_resource_path</text>
<text text-anchor="start" x="109.731" y="30.2" font-family="Times,serif" font-size="14.00">new_resource_url</text>
<text text-anchor="start" x="109.731" y="44.2" font-family="Times,serif" font-size="14.00">resource_path</text>
<text text-anchor="start" x="109.731" y="58.2" font-family="Times,serif" font-size="14.00">collection_path</text>
<polyline fill="none" stroke="black" points="101.731,65 238.269,65 "/>
<text text-anchor="start" x="109.731" y="80.2" font-family="Times,serif" font-size="14.00">_layout</text>
<text text-anchor="start" x="109.731" y="94.2" font-family="Times,serif" font-size="14.00">company_params</text>
</g>
</g>
</svg>
