<?xml version="1.0" encoding="UTF-8" standalone="no"?>
<!DOCTYPE svg PUBLIC "-//W3C//DTD SVG 1.1//EN"
 "http://www.w3.org/Graphics/SVG/1.1/DTD/svg11.dtd">
<!-- Generated by graphviz version 2.38.0 (20140413.2041)
 -->
<!-- Title: models_diagram Pages: 1 -->
<svg width="514pt" height="153pt"
 viewBox="0.00 0.00 514.18 153.00" xmlns="http://www.w3.org/2000/svg" xmlns:xlink="http://www.w3.org/1999/xlink">
<g id="graph0" class="graph" transform="scale(1 1) rotate(0) translate(4 149)">
<title>models_diagram</title>
<polygon fill="none" stroke="none" points="-4,4 -4,-149 510.184,-149 510.184,4 -4,4"/>
<!-- _diagram_info -->
<g id="node1" class="node"><title>_diagram_info</title>
<text text-anchor="start" x="8" y="-130.6" font-family="Times,serif" font-size="13.00">Models diagram</text>
<text text-anchor="start" x="8" y="-117.6" font-family="Times,serif" font-size="13.00">Date: Aug 29 2016 &#45; 22:02</text>
<text text-anchor="start" x="8" y="-104.6" font-family="Times,serif" font-size="13.00">Migration version: 20160830005945</text>
<text text-anchor="start" x="8" y="-91.6" font-family="Times,serif" font-size="13.00">Generated by RailRoady 1.5.1</text>
<text text-anchor="start" x="8" y="-78.6" font-family="Times,serif" font-size="13.00">http://railroady.prestonlee.com</text>
</g>
<!-- AdminUser -->
<g id="node2" class="node"><title>AdminUser</title>
<ellipse fill="none" stroke="black" cx="276.688" cy="-108.5" rx="51.2415" ry="18"/>
<text text-anchor="middle" x="276.688" y="-104.3" font-family="Times,serif" font-size="14.00">AdminUser</text>
</g>
<!-- Comment -->
<g id="node3" class="node"><title>Comment</title>
<ellipse fill="none" stroke="black" cx="372.688" cy="-18" rx="44.9768" ry="18"/>
<text text-anchor="middle" x="372.688" y="-13.8" font-family="Times,serif" font-size="14.00">Comment</text>
</g>
<!-- Company -->
<g id="node4" class="node"><title>Company</title>
<ellipse fill="none" stroke="black" cx="461.688" cy="-108.5" rx="44.4923" ry="18"/>
<text text-anchor="middle" x="461.688" y="-104.3" font-family="Times,serif" font-size="14.00">Company</text>
</g>
<!-- User -->
<g id="node5" class="node"><title>User</title>
<ellipse fill="none" stroke="black" cx="372.688" cy="-108.5" rx="27" ry="18"/>
<text text-anchor="middle" x="372.688" y="-104.3" font-family="Times,serif" font-size="14.00">User</text>
</g>
<!-- User&#45;&gt;Comment -->
<g id="edge1" class="edge"><title>User&#45;&gt;Comment</title>
<path fill="none" stroke="#f1b468" d="M372.688,-82.189C372.688,-70.9711 372.688,-57.7517 372.688,-46.3113"/>
<ellipse fill="none" stroke="#f1b468" cx="372.688" cy="-86.4363" rx="4" ry="4"/>
<polygon fill="#f1b468" stroke="#f1b468" points="372.688,-46.0113 377.188,-36.0113 372.688,-41.0113 372.688,-36.0113 372.688,-36.0113 372.688,-36.0113 372.688,-41.0113 368.188,-36.0113 372.688,-46.0113 372.688,-46.0113"/>
</g>
</g>
</svg>
