<?xml version="1.0" encoding="UTF-8" standalone="no"?>
<!DOCTYPE svg PUBLIC "-//W3C//DTD SVG 1.1//EN"
 "http://www.w3.org/Graphics/SVG/1.1/DTD/svg11.dtd">
<!-- Generated by graphviz version 2.38.0 (20140413.2041)
 -->
<!-- Title: models_diagram Pages: 1 -->
<svg width="818pt" height="358pt"
 viewBox="0.00 0.00 818.32 358.00" xmlns="http://www.w3.org/2000/svg" xmlns:xlink="http://www.w3.org/1999/xlink">
<g id="graph0" class="graph" transform="scale(1 1) rotate(0) translate(4 354)">
<title>models_diagram</title>
<polygon fill="none" stroke="none" points="-4,4 -4,-354 814.323,-354 814.323,4 -4,4"/>
<!-- _diagram_info -->
<g id="node1" class="node"><title>_diagram_info</title>
<text text-anchor="start" x="8" y="-265.6" font-family="Times,serif" font-size="13.00">Models diagram</text>
<text text-anchor="start" x="8" y="-252.6" font-family="Times,serif" font-size="13.00">Date: Aug 29 2016 &#45; 19:27</text>
<text text-anchor="start" x="8" y="-239.6" font-family="Times,serif" font-size="13.00">Migration version: 20160829222556</text>
<text text-anchor="start" x="8" y="-226.6" font-family="Times,serif" font-size="13.00">Generated by RailRoady 1.5.1</text>
<text text-anchor="start" x="8" y="-213.6" font-family="Times,serif" font-size="13.00">http://railroady.prestonlee.com</text>
</g>
<!-- Comment -->
<g id="node2" class="node"><title>Comment</title>
<path fill="none" stroke="black" d="M237.825,-0.5C237.825,-0.5 461.55,-0.5 461.55,-0.5 467.55,-0.5 473.55,-6.5 473.55,-12.5 473.55,-12.5 473.55,-88.5 473.55,-88.5 473.55,-94.5 467.55,-100.5 461.55,-100.5 461.55,-100.5 237.825,-100.5 237.825,-100.5 231.825,-100.5 225.825,-94.5 225.825,-88.5 225.825,-88.5 225.825,-12.5 225.825,-12.5 225.825,-6.5 231.825,-0.5 237.825,-0.5"/>
<text text-anchor="middle" x="349.688" y="-85.3" font-family="Times,serif" font-size="14.00">Comment</text>
<polyline fill="none" stroke="black" points="225.825,-78.5 473.55,-78.5 "/>
<text text-anchor="start" x="233.825" y="-63.3" font-family="Times,serif" font-size="14.00">id :integer</text>
<text text-anchor="start" x="233.825" y="-49.3" font-family="Times,serif" font-size="14.00">text :character varying</text>
<text text-anchor="start" x="233.825" y="-35.3" font-family="Times,serif" font-size="14.00">company_id :integer</text>
<text text-anchor="start" x="233.825" y="-21.3" font-family="Times,serif" font-size="14.00">created_at :timestamp without time zone</text>
<text text-anchor="start" x="233.825" y="-7.3" font-family="Times,serif" font-size="14.00">updated_at :timestamp without time zone</text>
</g>
<!-- Company -->
<g id="node3" class="node"><title>Company</title>
<path fill="none" stroke="black" d="M237.825,-200.5C237.825,-200.5 461.55,-200.5 461.55,-200.5 467.55,-200.5 473.55,-206.5 473.55,-212.5 473.55,-212.5 473.55,-274.5 473.55,-274.5 473.55,-280.5 467.55,-286.5 461.55,-286.5 461.55,-286.5 237.825,-286.5 237.825,-286.5 231.825,-286.5 225.825,-280.5 225.825,-274.5 225.825,-274.5 225.825,-212.5 225.825,-212.5 225.825,-206.5 231.825,-200.5 237.825,-200.5"/>
<text text-anchor="middle" x="349.688" y="-271.3" font-family="Times,serif" font-size="14.00">Company</text>
<polyline fill="none" stroke="black" points="225.825,-264.5 473.55,-264.5 "/>
<text text-anchor="start" x="233.825" y="-249.3" font-family="Times,serif" font-size="14.00">id :integer</text>
<text text-anchor="start" x="233.825" y="-235.3" font-family="Times,serif" font-size="14.00">name :character varying</text>
<text text-anchor="start" x="233.825" y="-221.3" font-family="Times,serif" font-size="14.00">created_at :timestamp without time zone</text>
<text text-anchor="start" x="233.825" y="-207.3" font-family="Times,serif" font-size="14.00">updated_at :timestamp without time zone</text>
</g>
<!-- Company&#45;&gt;Comment -->
<g id="edge1" class="edge"><title>Company&#45;&gt;Comment</title>
<path fill="none" stroke="#f38ada" d="M349.688,-191.946C349.688,-166.973 349.688,-136.687 349.688,-110.642"/>
<ellipse fill="none" stroke="#f38ada" cx="349.688" cy="-196.111" rx="4" ry="4"/>
<polygon fill="#f38ada" stroke="#f38ada" points="349.688,-110.517 354.188,-100.517 349.688,-105.517 349.688,-100.517 349.688,-100.517 349.688,-100.517 349.688,-105.517 345.188,-100.517 349.688,-110.517 349.688,-110.517"/>
</g>
<!-- User -->
<g id="node4" class="node"><title>User</title>
<path fill="none" stroke="black" d="M503.053,-137.5C503.053,-137.5 798.323,-137.5 798.323,-137.5 804.323,-137.5 810.323,-143.5 810.323,-149.5 810.323,-149.5 810.323,-337.5 810.323,-337.5 810.323,-343.5 804.323,-349.5 798.323,-349.5 798.323,-349.5 503.053,-349.5 503.053,-349.5 497.053,-349.5 491.053,-343.5 491.053,-337.5 491.053,-337.5 491.053,-149.5 491.053,-149.5 491.053,-143.5 497.053,-137.5 503.053,-137.5"/>
<text text-anchor="middle" x="650.688" y="-334.3" font-family="Times,serif" font-size="14.00">User</text>
<polyline fill="none" stroke="black" points="491.053,-327.5 810.323,-327.5 "/>
<text text-anchor="start" x="499.053" y="-312.3" font-family="Times,serif" font-size="14.00">updated_at :timestamp without time zone</text>
<text text-anchor="start" x="499.053" y="-298.3" font-family="Times,serif" font-size="14.00">email :character varying</text>
<text text-anchor="start" x="499.053" y="-284.3" font-family="Times,serif" font-size="14.00">encrypted_password :character varying</text>
<text text-anchor="start" x="499.053" y="-270.3" font-family="Times,serif" font-size="14.00">reset_password_token :character varying</text>
<text text-anchor="start" x="499.053" y="-256.3" font-family="Times,serif" font-size="14.00">reset_password_sent_at :timestamp without time zone</text>
<text text-anchor="start" x="499.053" y="-242.3" font-family="Times,serif" font-size="14.00">remember_created_at :timestamp without time zone</text>
<text text-anchor="start" x="499.053" y="-228.3" font-family="Times,serif" font-size="14.00">sign_in_count :integer</text>
<text text-anchor="start" x="499.053" y="-214.3" font-family="Times,serif" font-size="14.00">current_sign_in_at :timestamp without time zone</text>
<text text-anchor="start" x="499.053" y="-200.3" font-family="Times,serif" font-size="14.00">last_sign_in_at :timestamp without time zone</text>
<text text-anchor="start" x="499.053" y="-186.3" font-family="Times,serif" font-size="14.00">current_sign_in_ip :inet</text>
<text text-anchor="start" x="499.053" y="-172.3" font-family="Times,serif" font-size="14.00">last_sign_in_ip :inet</text>
<text text-anchor="start" x="499.053" y="-158.3" font-family="Times,serif" font-size="14.00">created_at :timestamp without time zone</text>
<text text-anchor="start" x="499.053" y="-144.3" font-family="Times,serif" font-size="14.00">id :integer</text>
</g>
</g>
</svg>
