<?xml version="1.0" encoding="UTF-8" standalone="no"?>
<!DOCTYPE svg PUBLIC "-//W3C//DTD SVG 1.1//EN"
 "http://www.w3.org/Graphics/SVG/1.1/DTD/svg11.dtd">
<!-- Generated by graphviz version 2.38.0 (20140413.2041)
 -->
<!-- Title: models_diagram Pages: 1 -->
<svg width="1155pt" height="372pt"
 viewBox="0.00 0.00 1154.55 372.00" xmlns="http://www.w3.org/2000/svg" xmlns:xlink="http://www.w3.org/1999/xlink">
<g id="graph0" class="graph" transform="scale(1 1) rotate(0) translate(4 368)">
<title>models_diagram</title>
<polygon fill="none" stroke="none" points="-4,4 -4,-368 1150.55,-368 1150.55,4 -4,4"/>
<!-- _diagram_info -->
<g id="node1" class="node"><title>_diagram_info</title>
<text text-anchor="start" x="8" y="-279.6" font-family="Times,serif" font-size="13.00">Models diagram</text>
<text text-anchor="start" x="8" y="-266.6" font-family="Times,serif" font-size="13.00">Date: Aug 29 2016 &#45; 22:02</text>
<text text-anchor="start" x="8" y="-253.6" font-family="Times,serif" font-size="13.00">Migration version: 20160830005945</text>
<text text-anchor="start" x="8" y="-240.6" font-family="Times,serif" font-size="13.00">Generated by RailRoady 1.5.1</text>
<text text-anchor="start" x="8" y="-227.6" font-family="Times,serif" font-size="13.00">http://railroady.prestonlee.com</text>
</g>
<!-- AdminUser -->
<g id="node2" class="node"><title>AdminUser</title>
<path fill="none" stroke="black" d="M237.053,-151.5C237.053,-151.5 532.323,-151.5 532.323,-151.5 538.323,-151.5 544.323,-157.5 544.323,-163.5 544.323,-163.5 544.323,-351.5 544.323,-351.5 544.323,-357.5 538.323,-363.5 532.323,-363.5 532.323,-363.5 237.053,-363.5 237.053,-363.5 231.053,-363.5 225.053,-357.5 225.053,-351.5 225.053,-351.5 225.053,-163.5 225.053,-163.5 225.053,-157.5 231.053,-151.5 237.053,-151.5"/>
<text text-anchor="middle" x="384.688" y="-348.3" font-family="Times,serif" font-size="14.00">AdminUser</text>
<polyline fill="none" stroke="black" points="225.053,-341.5 544.323,-341.5 "/>
<text text-anchor="start" x="233.053" y="-326.3" font-family="Times,serif" font-size="14.00">updated_at :timestamp without time zone</text>
<text text-anchor="start" x="233.053" y="-312.3" font-family="Times,serif" font-size="14.00">email :character varying</text>
<text text-anchor="start" x="233.053" y="-298.3" font-family="Times,serif" font-size="14.00">encrypted_password :character varying</text>
<text text-anchor="start" x="233.053" y="-284.3" font-family="Times,serif" font-size="14.00">reset_password_token :character varying</text>
<text text-anchor="start" x="233.053" y="-270.3" font-family="Times,serif" font-size="14.00">reset_password_sent_at :timestamp without time zone</text>
<text text-anchor="start" x="233.053" y="-256.3" font-family="Times,serif" font-size="14.00">remember_created_at :timestamp without time zone</text>
<text text-anchor="start" x="233.053" y="-242.3" font-family="Times,serif" font-size="14.00">sign_in_count :integer</text>
<text text-anchor="start" x="233.053" y="-228.3" font-family="Times,serif" font-size="14.00">current_sign_in_at :timestamp without time zone</text>
<text text-anchor="start" x="233.053" y="-214.3" font-family="Times,serif" font-size="14.00">last_sign_in_at :timestamp without time zone</text>
<text text-anchor="start" x="233.053" y="-200.3" font-family="Times,serif" font-size="14.00">current_sign_in_ip :inet</text>
<text text-anchor="start" x="233.053" y="-186.3" font-family="Times,serif" font-size="14.00">last_sign_in_ip :inet</text>
<text text-anchor="start" x="233.053" y="-172.3" font-family="Times,serif" font-size="14.00">created_at :timestamp without time zone</text>
<text text-anchor="start" x="233.053" y="-158.3" font-family="Times,serif" font-size="14.00">id :integer</text>
</g>
<!-- Comment -->
<g id="node3" class="node"><title>Comment</title>
<path fill="none" stroke="black" d="M609.825,-0.5C609.825,-0.5 833.55,-0.5 833.55,-0.5 839.55,-0.5 845.55,-6.5 845.55,-12.5 845.55,-12.5 845.55,-102.5 845.55,-102.5 845.55,-108.5 839.55,-114.5 833.55,-114.5 833.55,-114.5 609.825,-114.5 609.825,-114.5 603.825,-114.5 597.825,-108.5 597.825,-102.5 597.825,-102.5 597.825,-12.5 597.825,-12.5 597.825,-6.5 603.825,-0.5 609.825,-0.5"/>
<text text-anchor="middle" x="721.688" y="-99.3" font-family="Times,serif" font-size="14.00">Comment</text>
<polyline fill="none" stroke="black" points="597.825,-92.5 845.55,-92.5 "/>
<text text-anchor="start" x="605.825" y="-77.3" font-family="Times,serif" font-size="14.00">id :integer</text>
<text text-anchor="start" x="605.825" y="-63.3" font-family="Times,serif" font-size="14.00">text :character varying</text>
<text text-anchor="start" x="605.825" y="-49.3" font-family="Times,serif" font-size="14.00">company_id :integer</text>
<text text-anchor="start" x="605.825" y="-35.3" font-family="Times,serif" font-size="14.00">created_at :timestamp without time zone</text>
<text text-anchor="start" x="605.825" y="-21.3" font-family="Times,serif" font-size="14.00">updated_at :timestamp without time zone</text>
<text text-anchor="start" x="605.825" y="-7.3" font-family="Times,serif" font-size="14.00">user_id :integer</text>
</g>
<!-- Company -->
<g id="node4" class="node"><title>Company</title>
<path fill="none" stroke="black" d="M910.825,-214.5C910.825,-214.5 1134.55,-214.5 1134.55,-214.5 1140.55,-214.5 1146.55,-220.5 1146.55,-226.5 1146.55,-226.5 1146.55,-288.5 1146.55,-288.5 1146.55,-294.5 1140.55,-300.5 1134.55,-300.5 1134.55,-300.5 910.825,-300.5 910.825,-300.5 904.825,-300.5 898.825,-294.5 898.825,-288.5 898.825,-288.5 898.825,-226.5 898.825,-226.5 898.825,-220.5 904.825,-214.5 910.825,-214.5"/>
<text text-anchor="middle" x="1022.69" y="-285.3" font-family="Times,serif" font-size="14.00">Company</text>
<polyline fill="none" stroke="black" points="898.825,-278.5 1146.55,-278.5 "/>
<text text-anchor="start" x="906.825" y="-263.3" font-family="Times,serif" font-size="14.00">id :integer</text>
<text text-anchor="start" x="906.825" y="-249.3" font-family="Times,serif" font-size="14.00">name :character varying</text>
<text text-anchor="start" x="906.825" y="-235.3" font-family="Times,serif" font-size="14.00">created_at :timestamp without time zone</text>
<text text-anchor="start" x="906.825" y="-221.3" font-family="Times,serif" font-size="14.00">updated_at :timestamp without time zone</text>
</g>
<!-- User -->
<g id="node5" class="node"><title>User</title>
<path fill="none" stroke="black" d="M574.053,-151.5C574.053,-151.5 869.323,-151.5 869.323,-151.5 875.323,-151.5 881.323,-157.5 881.323,-163.5 881.323,-163.5 881.323,-351.5 881.323,-351.5 881.323,-357.5 875.323,-363.5 869.323,-363.5 869.323,-363.5 574.053,-363.5 574.053,-363.5 568.053,-363.5 562.053,-357.5 562.053,-351.5 562.053,-351.5 562.053,-163.5 562.053,-163.5 562.053,-157.5 568.053,-151.5 574.053,-151.5"/>
<text text-anchor="middle" x="721.688" y="-348.3" font-family="Times,serif" font-size="14.00">User</text>
<polyline fill="none" stroke="black" points="562.053,-341.5 881.323,-341.5 "/>
<text text-anchor="start" x="570.053" y="-326.3" font-family="Times,serif" font-size="14.00">updated_at :timestamp without time zone</text>
<text text-anchor="start" x="570.053" y="-312.3" font-family="Times,serif" font-size="14.00">email :character varying</text>
<text text-anchor="start" x="570.053" y="-298.3" font-family="Times,serif" font-size="14.00">encrypted_password :character varying</text>
<text text-anchor="start" x="570.053" y="-284.3" font-family="Times,serif" font-size="14.00">reset_password_token :character varying</text>
<text text-anchor="start" x="570.053" y="-270.3" font-family="Times,serif" font-size="14.00">reset_password_sent_at :timestamp without time zone</text>
<text text-anchor="start" x="570.053" y="-256.3" font-family="Times,serif" font-size="14.00">remember_created_at :timestamp without time zone</text>
<text text-anchor="start" x="570.053" y="-242.3" font-family="Times,serif" font-size="14.00">sign_in_count :integer</text>
<text text-anchor="start" x="570.053" y="-228.3" font-family="Times,serif" font-size="14.00">current_sign_in_at :timestamp without time zone</text>
<text text-anchor="start" x="570.053" y="-214.3" font-family="Times,serif" font-size="14.00">last_sign_in_at :timestamp without time zone</text>
<text text-anchor="start" x="570.053" y="-200.3" font-family="Times,serif" font-size="14.00">current_sign_in_ip :inet</text>
<text text-anchor="start" x="570.053" y="-186.3" font-family="Times,serif" font-size="14.00">last_sign_in_ip :inet</text>
<text text-anchor="start" x="570.053" y="-172.3" font-family="Times,serif" font-size="14.00">created_at :timestamp without time zone</text>
<text text-anchor="start" x="570.053" y="-158.3" font-family="Times,serif" font-size="14.00">id :integer</text>
</g>
<!-- User&#45;&gt;Comment -->
<g id="edge1" class="edge"><title>User&#45;&gt;Comment</title>
<path fill="none" stroke="#33ac68" d="M721.688,-143.119C721.688,-136.975 721.688,-130.907 721.688,-125.012"/>
<ellipse fill="none" stroke="#33ac68" cx="721.688" cy="-147.413" rx="4" ry="4"/>
<polygon fill="#33ac68" stroke="#33ac68" points="721.688,-124.609 726.188,-114.608 721.688,-119.609 721.688,-114.609 721.688,-114.609 721.688,-114.609 721.688,-119.609 717.188,-114.609 721.688,-124.609 721.688,-124.609"/>
</g>
</g>
</svg>
